
<svg xmlns="http://www.w3.org/2000/svg" viewBox="0 0 640 480" width="100%" height="100%">
  <path fill="#066da5" d="M271.9 120.8c-11.5-8-29.9-11.5-47.3-8l-4.6-36c-1.1-8-10.3-13.7-18.3-11.5-7.4 1.7-12.6 9.1-11.5 16.6l6.9 52.6c-14.9 8-21.7 22.9-19.4 39.4 0 1.1.6 2.3.6 3.4 26.3 45.8 92.1 28.6 100-18.3.6-12.6-2.2-30.8-6.4-38.2zm-96.5 144.7h-48.4c-2.9 0-5.1-2.3-5.1-5.1v-41c0-2.9 2.3-5.1 5.1-5.1h48.4c2.9 0 5.1 2.3 5.1 5.1v41c0 2.9-2.2 5.1-5.1 5.1zm-66.1 0H61c-2.9 0-5.1-2.3-5.1-5.1v-41c0-2.9 2.3-5.1 5.1-5.1h48.4c2.9 0 5.1 2.3 5.1 5.1v41c-.1 2.9-2.3 5.1-5.2 5.1z"/>
  <path fill="#066da5" d="M573.2 212.2c-9.7-6.9-22.9-2.3-28 7.4-6.3 12 2.9 33.7 29.1 32.5l9.7 9.7c12.6 9.7 30.8 8 42.7-2.9 6.3-6.3 9.1-14.3 8-23.9-2.9-18.6-18.4-41.6-42.7-78.7-13.7-21.1-42.2-4-29.1 16 13.1 20 28 46.1 10.3 39.9zm-499.3 35.4h-48.4c-2.9 0-5.1-2.3-5.1-5.1v-41c0-2.9 2.3-5.1 5.1-5.1h48.4c2.9 0 5.1 2.3 5.1 5.1v41c0 2.8-2.3 5.1-5.1 5.1zm66.7 0H92.3c-2.9 0-5.1-2.3-5.1-5.1v-41c0-2.9 2.3-5.1 5.1-5.1h48.4c2.9 0 5.1 2.3 5.1 5.1v41c-.1 2.8-2.3 5.1-5.2 5.1zm66.7 0h-48.4c-2.9 0-5.1-2.3-5.1-5.1v-41c0-2.9 2.3-5.1 5.1-5.1h48.4c2.9 0 5.1 2.3 5.1 5.1v41c-.1 2.8-2.3 5.1-5.1 5.1zm66.7 0h-48.4c-2.9 0-5.1-2.3-5.1-5.1v-41c0-2.9 2.3-5.1 5.1-5.1h48.4c2.9 0 5.1 2.3 5.1 5.1v41c0 2.8-2.3 5.1-5.1 5.1zm66 0h-48.4c-2.9 0-5.1-2.3-5.1-5.1v-41c0-2.9 2.3-5.1 5.1-5.1h48.4c2.9 0 5.1 2.3 5.1 5.1v41c0 2.8-2.3 5.1-5.1 5.1z"/>
  <path fill="#066da5" d="M340.6 201.7h-48.4c-2.9 0-5.1-2.3-5.1-5.1v-41c0-2.9 2.3-5.1 5.1-5.1h48.4c2.9 0 5.1 2.3 5.1 5.1v41c0 2.8-2.3 5.1-5.1 5.1zm-66.6 0h-48.4c-2.9 0-5.1-2.3-5.1-5.1v-41c0-2.9 2.3-5.1 5.1-5.1h48.4c2.9 0 5.1 2.3 5.1 5.1v41c-.1 2.8-2.3 5.1-5.1 5.1zm-66.7 0h-48.4c-2.9 0-5.1-2.3-5.1-5.1v-41c0-2.9 2.3-5.1 5.1-5.1h48.4c2.9 0 5.1 2.3 5.1 5.1v41c0 2.8-2.3 5.1-5.1 5.1z"/>
</svg>
