
<svg xmlns="http://www.w3.org/2000/svg" viewBox="0 0 200 200" width="100%" height="100%">
  <path fill="#326CE5" d="M99.525 20.074c-2.58.008-5.183.486-7.635 1.34l.004-.01-.227.093c-.167.068-.333.135-.498.207l-.24.106-.265.123-.188.095c-.148.074-.292.15-.436.227l-.168.09-.247.137-.175.102-.24.143-.193.123-.205.136-.208.146-.17.125c-.077.058-.157.115-.226.174l-.177.142-.201.167-.16.14c-.072.065-.146.131-.214.197l-.153.15-.188.19-.166.175c-.057.06-.113.12-.167.184l-.162.185-.149.174c-.05.06-.1.121-.15.184l-.144.183c-.046.06-.092.119-.136.18l-.137.188-.127.182c-.042.061-.084.123-.124.185l-.12.19-.113.185-.111.19c-.036.063-.072.127-.107.192l-.1.188-.1.198-.092.19c-.03.063-.06.126-.088.19l-.084.195-.075.179c-.025.066-.052.132-.076.198l-.068.187-.062.18c-.021.063-.04.127-.06.192l-.051.181c-.016.061-.032.122-.047.185l-.4.173c-.013.06-.025.121-.036.181l-.3.172c-.01.06-.018.12-.025.18l-.017.148-.008.087s-27.744 79.754-27.744 79.754l-.052.117c-.3.72-.053 1.443-.053 2.158 0 2.033.396 4.065 1.168 6.01.193.488.414.975.653 1.445.48.943 1.027 1.845 1.647 2.712.137.19.276.378.422.564.17.218.349.43.528.64.166.195.334.387.505.575.147.16.296.321.45.477.261.265.526.524.8.776.076.07.151.141.228.209.3.264.605.519.921.765l.196.15c.369.278.743.543 1.13.797.2.13.401.258.603.38.281.171.564.34.853.499.227.125.456.245.687.36.227.114.457.222.687.328.248.114.498.227.75.332.207.086.414.17.622.25.276.106.552.208.834.305l.581.19c.32.098.643.192.967.277l.494.128c.385.095.774.18 1.162.257l.352.066c.504.093 1.01.172 1.52.235l.033.004c.578.07 1.158.121 1.734.151.027 0 .055.003.08.004 6.264.301 12.329-1.555 17.402-5.096.017-.01.031-.02.048-.032l.222-.17c.57-.438 1.11-.907 1.617-1.401.02-.02.041-.037.059-.058l63.32-63.32.044-.042c5.238-5.25 7.493-12.546 6.426-19.78l-.01-.059-.01-.059-17.864-101.296a27.663 27.663 0 00-1.92-6.278c-.096-.23-.207-.457-.311-.681-.139-.295-.278-.587-.43-.876-.138-.264-.286-.522-.434-.777-.13-.223-.26-.444-.397-.66-.16-.25-.33-.492-.499-.73-.136-.194-.267-.39-.41-.577-.18-.238-.372-.467-.564-.695-.132-.157-.26-.316-.397-.467-.221-.244-.452-.476-.686-.706-.12-.118-.234-.24-.359-.353-.29-.266-.59-.522-.898-.765-.09-.07-.176-.144-.267-.214-.273-.202-.553-.397-.838-.583l-.325-.208a16.476 16.476 0 00-.816-.472 20.32 20.32 0 00-.38-.205c-.271-.142-.547-.274-.825-.4l-.386-.17c-.294-.124-.59-.24-.89-.348l-.349-.122c-.338-.114-.68-.221-1.025-.319l-.257-.071c-.398-.106-.8-.202-1.204-.284l-.2-.04a19.441 19.441 0 00-1.211-.204l-.18-.023a20.1 20.1 0 00-1.323-.116c-.046 0-.093-.01-.139-.012-.406-.018-.812-.026-1.214-.026zm.015 4.023c.334 0 .669.01 1.004.029l.008.001c.26.13.52.037.778.066.064.008.129.016.193.025.169.023.337.05.504.081.073.013.144.028.216.043.197.4.392.087.584.139l.145.04c.213.06.425.127.633.2.026.01.05.022.077.031.157.056.312.117.464.182.074.03.146.062.22.095.195.088.388.18.578.28.144.076.284.16.423.242.025.015.052.026.075.042.155.091.305.19.455.29.09.06.181.121.268.184.155.111.306.226.456.344l.16.13c.18.148.353.303.522.462.02.019.042.035.062.053a10.39 10.39 0 01.547.583l.084.097c.123.146.242.294.358.446l.13.175c.058.078.116.156.171.235l.077.113c.103.155.202.313.297.473l.051.09c.088.153.171.309.252.465l.069.136c.072.152.14.304.208.459l.058.133c.052.131.101.264.15.397l.064.187c.033.99.063.199.094.3l.048.16c.057.202.112.405.16.609l.026.11c.047.208.087.417.126.628.17.094.03.189.046.284l.068.477c.023.176.04.352.056.529l.016.17c.014.17.022.34.03.51l.006.124a18.09 18.09 0 01-.002 1.187l-.01.145c-.008.119-.015.237-.027.356l-.02.224a13.06 13.06 0 01-.093.727c-.01.067-.023.134-.033.2a9.37 9.37 0 01-.11.566l-.045.2c-.049.204-.102.407-.159.608l-.052.167c-.058.19-.122.38-.19.568l-.058.155a9.957 9.957 0 01-.275.649l-.05.107c-.116.239-.237.474-.368.705-.022.04-.049.077-.071.116l17.425 98.763c.7 4.794-.828 9.583-4.15 13.261L97.82 183.423c-3.61 2.386-7.792 3.637-12.037 3.637-3.454 0-6.905-.803-10.063-2.416l-.008-.005a23.698 23.698 0 01-1.095-.58c-.242-.136-.484-.278-.723-.428a20.1 20.1 0 01-.766-.51 19.409 19.409 0 01-.564-.42l-.099-.078a17.3 17.3 0 01-.615-.514l-.121-.11a16.488 16.488 0 01-.514-.485l-.19-.18-.07-.073a21.42 21.42 0 01-.465-.493l-.156-.175a16.216 16.216 0 01-.44-.525l-.129-.166a14.573 14.573 0 01-.404-.55l-.12-.175a14.91 14.91 0 01-.363-.555l-.103-.174a13.646 13.646 0 01-.328-.586c-.026-.05-.05-.102-.076-.152a13.32 13.32 0 01-.295-.612l-.059-.136a12.501 12.501 0 01-.254-.622l-.05-.136c-.074-.21-.142-.424-.204-.64l-.04-.133a12.578 12.578 0 01-.185-.78l-.01-.047c-.05-.233-.094-.47-.132-.708l-.023-.15c-.037-.255-.067-.512-.093-.768l-.006-.065L42.79 127.04l-.002-.008c-.043-.448-.065-.894-.07-1.337v-.027c0-.145.006-.29.011-.435.005-.137.012-.272.021-.406.007-.134.017-.268.028-.401.003-.33.003-.066.006-.098l.043-.41.006-.049c.01-.074.023-.147.033-.22l.033-.262.03-.204c.015-.09.031-.182.048-.273l.032-.167.033-.16.07-.324.063-.262.048-.184.078-.276.04-.144.108-.339.04-.114c.042-.122.085-.241.13-.36l.044-.115c.039-.1.078-.2.119-.299l.064-.15.108-.251.069-.15.107-.223.073-.143.106-.21.076-.139.106-.194.079-.137c.035-.06.072-.12.107-.179l.083-.134c.036-.058.074-.115.112-.172l.086-.128.071-.095c.014-.02.03-.04.043-.059L111.12 42.45l.03-.03a6.257 6.257 0 00.75-6.798c-.044-.087-.094-.17-.143-.252l-.075-.126a6.242 6.242 0 00-.75-.976l-.091-.091a6.25 6.25 0 00-4.413-1.829c-.069 0-.137.012-.207.016-.114.005-.227.015-.34.029-.112.014-.221.034-.331.056-.108.022-.217.042-.322.071a6.27 6.27 0 00-.673.209c-.084.03-.168.06-.25.094a6.162 6.162 0 00-.522.243c-.045.023-.084.053-.128.077-.164.09-.326.186-.485.292l-.081.055c-.136.093-.269.193-.399.298l-.117.094a5.981 5.981 0 00-.347.317l-.067.069a6.258 6.258 0 00-.88 1.179c-.097.168-.177.343-.25.521-.29.067-.068.132-.093.2l-.063.167c-.3.82-.573.237-.75.415l-66.16 66.161c-.128.128-.257.26-.39.39-.123.12-.248.238-.374.358l-.154.152c-.105.105-.209.212-.315.319l-.17.178c-.103.109-.205.216-.309.33l-.047.053c-.03.033-.057.068-.087.102a23.703 23.703 0 00-5.564 13.85l27.287-78.462c.114-.347.2-.7.271-1.055-.069.348-.144.695-.253 1.036-.198.533-.433 1.05-.706 1.55l-27.302 78.487c-.009 2.331.355 4.664 1.083 6.912l.267.701c5.162 13.593 20.555 20.48 34.132 15.271l67.41-33.663c.108-.54.219-.108.332-.168.111-.06.223-.119.338-.186.115-.068.23-.135.348-.21l.005-.003c.119-.77.238-.154.36-.236l.168-.118c.105-.075.21-.15.318-.23.107-.08.213-.16.32-.245l.069-.055c.087-.07.172-.143.258-.217l.178-.158c.058-.052.115-.105.173-.16a9.957 9.957 0 01.361-.354l.001-.001c.094-.09.186-.185.276-.283 4.274-4.567 4.035-11.769-.54-16.006l-47.02-40.087a6.23 6.23 0 01-1.047-7.847c.041-.066.088-.126.13-.19.075-.111.152-.22.235-.324.087-.108.177-.214.272-.313.037-.04.073-.082.112-.12.145-.143.297-.278.457-.404l.082-.06c.123-.088.251-.17.382-.248l.088-.05c.146-.085.295-.165.449-.236.048-.22.095-.046.146-.066.144-.064.29-.124.44-.177.058-.2.114-.043.173-.061.158-.5.32-.094.483-.13.04-.8.078-.021.122-.027a6.199 6.199 0 012.548.03c.023.005.044.013.066.018.19.043.379.094.564.153.03.01.06.018.09.027.17.063.339.132.502.21.041.019.08.041.119.061.146.075.289.155.428.242.04.024.077.052.116.077.139.09.276.184.407.284.02.016.042.028.062.045l47.015 40.082c.034.029.065.062.097.092.098.088.197.174.293.265l.146.143c.038.038.074.077.112.116.079.083.161.165.239.25l.127.142c.081.093.158.186.234.282.02.023.042.043.06.068.054.069.108.139.16.21l.121.169c.031.046.06.092.09.138.068.103.136.207.201.312.04.067.079.135.118.203.03.054.057.11.084.166.11.212.216.425.312.642l.051.117c.014.034.025.07.039.104.079.189.154.377.225.568.038.103.077.205.112.31.021.064.038.13.058.195.044.144.088.287.128.431l.058.214c.01.044.018.088.029.133.043.178.083.356.12.534.019.098.038.194.056.292.017.095.032.192.047.29.021.134.041.268.059.401.01.088.023.173.032.26.017.157.03.315.04.472.006.073.016.146.02.218.009.148.012.297.015.446.001.068.006.135.006.203 0 .064-.005.126-.006.19-.003.175-.008.351-.02.526a10.79 10.79 0 01-.198 1.34 9.924 9.924 0 01-.398 1.427c-.031.087-.068.17-.102.256a9.923 9.923 0 01-.433.984l-.086.17c-.116.22-.241.431-.37.64l-.113.17a9.93 9.93 0 01-.62.825l-66.995 66.994-.001.002c-3.62 3.621-8.45 5.618-13.585 5.618-1.104 0-2.212-.097-3.31-.286a20.23 20.23 0 01-1.134-.227l-.059-.013a17.153 17.153 0 01-.862-.23l-.233-.075c-.265-.087-.527-.177-.785-.278l-.067-.027a14.184 14.184 0 01-.769-.333l-.173-.088a13.14 13.14 0 01-.547-.297 12.1 12.1 0 01-.629-.384l-.025-.016a11.407 11.407 0 01-.615-.447l-.156-.12c-.15-.123-.297-.249-.44-.38l-.13-.12a10.15 10.15 0 01-.41-.414l-.13-.139c-.109-.12-.214-.245-.318-.372l-.118-.149c-.082-.105-.16-.21-.237-.32l-.113-.159c-.064-.098-.13-.194-.19-.295l-.097-.155c-.059-.097-.113-.196-.167-.297l-.085-.164c-.043-.084-.082-.17-.123-.256l-.076-.17c-.031-.07-.062-.138-.092-.21l-.067-.173c-.024-.062-.048-.124-.07-.188l-.056-.17c-.02-.059-.038-.119-.056-.18l-.045-.164c-.014-.053-.028-.106-.042-.16l-.036-.155c-.01-.048-.02-.098-.03-.147l-.028-.15c-.007-.042-.014-.085-.02-.128l-.018-.141c-.005-.04-.007-.081-.011-.12l-.01-.134c-.002-.036-.005-.072-.006-.108a8.576 8.576 0 01-.005-.12v-1.002c.002-.039.003-.078.007-.117l.009-.127a7.756 7.756 0 01.038-.31l.014-.097c.006-.042.014-.082.021-.124l.02-.118c.008-.04.016-.082.024-.122l.022-.107a5.74 5.74 0 01.062-.255c.015-.053.032-.106.049-.16l.024-.077a19.955 19.955 0 017.207-10.419L63.76 104.78c.035-.26.069-.51.104-.076 3.765-2.678 8.039-4.008 12.314-4.008 6.842 0 13.67 3.257 17.879 9.351l3.12 4.465a6.233 6.233 0 004.445 2.65 6.23 6.23 0 004.954-1.387l2.97-2.525a6.232 6.232 0 001.386-7.941l-10.94-19.143a6.232 6.232 0 01-.824-3.118 6.232 6.232 0 11.895-4.417z"/>
  <path fill="#326CE5" d="M99.764 93.132c-9.004 0-16.37 7.366-16.37 16.37 0 9.004 7.366 16.371 16.37 16.371 9.003 0 16.37-7.367 16.37-16.37 0-9.004-7.367-16.371-16.37-16.371zm0 5.413c6.08 0 10.957 4.878 10.957 10.958 0 6.08-4.878 10.956-10.957 10.956-6.08 0-10.957-4.876-10.957-10.956 0-6.08 4.878-10.958 10.957-10.958z"/>
</svg>
