
<svg xmlns="http://www.w3.org/2000/svg" viewBox="0 0 200 200" width="100%" height="100%">
  <path fill="#4285F4" d="M76.57 89.11l-1.45-4.89-4.89-1.44 4.89-1.45 1.45-4.89 1.44 4.89 4.89 1.45-4.89 1.44-1.44 4.89z"/>
  <path fill="#EA4335" d="M35.19 121.97l-2.94-9.87-9.87-2.93 9.87-2.93 2.94-9.87 2.93 9.87 9.87 2.93-9.87 2.93-2.93 9.87z"/>
  <path fill="#FBBC05" d="M123.42 121.97l-2.93-9.87-9.87-2.93 9.87-2.93 2.93-9.87 2.94 9.87 9.87 2.93-9.87 2.93-2.94 9.87z"/>
  <path fill="#34A853" d="M163.62 91.45l-1.45-4.89-4.88-1.44 4.88-1.45 1.45-4.89 1.45 4.89 4.88 1.45-4.88 1.44-1.45 4.89z"/>
  <path fill="#4285F4" d="M76.56 142.67c-22.71 0-41.18-18.47-41.18-41.18s18.47-41.17 41.18-41.17c10.16 0 19.47 3.69 26.7 9.8l-12.48 14.31c-3.75-3.17-8.58-5.08-14.22-5.08-11.98 0-21.7 9.72-21.7 21.7s9.72 21.7 21.7 21.7c14.01 0 19.04-10.14 19.85-15.4H76.56V89.52h39.7c.51 2.2.81 4.53.81 7.02 0 24.34-17.95 46.13-40.51 46.13z"/>
  <path fill="#EA4335" d="M163.62 142.67l-31.3-48.15v48.15h-15.85V60.33h16.14l30.98 47.64V60.33h15.85v82.34h-15.82z"/>
</svg>
