
<svg xmlns="http://www.w3.org/2000/svg" viewBox="0 0 111.5 111.5" width="100%" height="100%">
  <linearGradient id="a" x1="50%" x2="50%" y1="0%" y2="100%">
    <stop offset="0%" stop-color="#387EB8"/>
    <stop offset="100%" stop-color="#366994"/>
  </linearGradient>
  <linearGradient id="b" x1="50%" x2="50%" y1="0%" y2="100%">
    <stop offset="0%" stop-color="#FFE052"/>
    <stop offset="100%" stop-color="#FFC331"/>
  </linearGradient>
  <path fill="url(#a)" d="M55.3.4c-4 0-7.8.4-11.1 1-9.8 1.8-11.6 5.6-11.6 12.6v9.2h23.2v3H20.8c-7 0-13.2 4.2-15.1 12.2-2.2 9.2-2.3 15 0 24.6 1.7 7.2 5.8 12.2 12.8 12.2h8.3V63.5c0-8.4 7.3-15.8 15.8-15.8h23.2c7 0 12.6-5.8 12.6-12.9V14c0-6.9-5.8-12-12.6-13.2C62.2.5 59.3.2 55.3.4zm-12.5 7.4c2.4 0 4.4 2 4.4 4.4 0 2.4-2 4.3-4.4 4.3-2.4 0-4.3-1.9-4.3-4.3 0-2.4 1.9-4.4 4.3-4.4z"/>
  <path fill="url(#b)" d="M85.7 26.3v11c0 8.5-7.2 15.7-15.8 15.7H46.7c-6.9 0-12.6 5.9-12.6 12.9v24c0 6.9 6 11 12.6 13 7.9 2.4 15.4 2.8 23.2 0 5.2-1.8 10.3-5.5 10.3-13v-9.2H57.1v-3h35c7 0 9.6-4.9 12-12.2 2.5-7.6 2.4-14.8 0-24.6-1.7-7-5-12.2-12-12.2h-6.3zM69.2 89.8c2.4 0 4.3 2 4.3 4.4 0 2.4-1.9 4.4-4.3 4.4-2.4 0-4.4-2-4.4-4.4 0-2.4 2-4.4 4.4-4.4z"/>
</svg>
